# xmcd
#
# Track frame offsets:
#	150
#	16446
#	27403
#	54207
#	75354
#	94057
#	109459
#	125171
#	141415
#	161855
#	180840
#	196652
#	216148
#	236106
#	252694
#	271052
#	287464
#	308683
#	324331
#	336628
#
# Disc length: 4746 seconds
#
# Revision: 1
# Processed by: cddbd v1.5.1PL2 Copyright (c) Steve Scherf et al.
# Submitted via: audiograbber 1.83.01
#
DISCID=21128814
DTITLE=Various Artist - Country Hitlist VIII
DYEAR=2005
DGENRE=Country
TTITLE0=Toby Keith - Honky Tonk U
TTITLE1=Joe Nichols - What's a guy gotta do
TTITLE2=Martina McBride - God's will
TTITLE3=Tim McGraw - Drugs or Jesus
TTITLE4=Blaine Larsen - How do you get that lonely
TTITLE5=Blake Shelton - Goodbye Time
TTITLE6=Gretchen Wilson - Homewrecker
TTITLE7=Dierks Bentley - Keg in the Closet
TTITLE8=Lonestar - Class Reunion  (That used to be us)
TTITLE9=Keith Urban - Making Memories of us
TTITLE10=Phil Vassar - I'll take that as a yes
TTITLE11=George Strait - You'll be there
TTITLE12=Rascal Flatts - Fast Cars and Freedom
TTITLE13=Jeff Bates - Long Slow Kisses
TTITLE14=Big and Rich - Big Time
TTITLE15=Sugarland - Something More
TTITLE16=Darryl Worley - If Something should happen
TTITLE17=Trace Adkins - Songs about me
TTITLE18=Lee Majors - The Unknown Stuntman
TTITLE19=Kid Rock - Cowboy
EXTD=
EXTT0=
EXTT1=
EXTT2=
EXTT3=
EXTT4=
EXTT5=
EXTT6=
EXTT7=
EXTT8=
EXTT9=
EXTT10=
EXTT11=
EXTT12=
EXTT13=
EXTT14=
EXTT15=
EXTT16=
EXTT17=
EXTT18=
EXTT19=
PLAYORDER=
